<svg width="158" height="157" viewBox="0 0 158 157" fill="none" xmlns="http://www.w3.org/2000/svg">
<path d="M5.96278 107.268C2.34147 98.7844 0.501444 89.3615 0.445545 79.4997C0.199268 36.0507 35.1594 0.691942 78.6084 0.445665C122.057 0.199387 157.416 35.1595 157.662 78.6086C157.909 122.058 122.949 157.416 79.4996 157.663C69.6378 157.718 60.1946 155.985 51.4572 152.676C54.9742 149.195 57.6403 144.949 59.248 140.269C65.6199 142.305 72.2723 143.411 79.4186 143.37C96.4762 143.273 112.797 136.405 124.79 124.275C136.783 112.145 143.467 95.7472 143.37 78.6896C143.273 61.6319 136.404 45.3113 124.275 33.3181C112.145 21.3248 95.7471 14.6414 78.6895 14.7381C61.6318 14.8348 45.3112 21.7037 33.3179 33.8336C21.3247 45.9636 14.6413 62.361 14.738 79.4187C14.7785 86.5649 15.9596 93.2044 18.068 99.5528C13.6463 101.15 9.44418 103.675 5.96278 107.268ZM14.5241 129.945C14.5027 126.155 15.9879 122.511 18.653 119.815C21.3182 117.12 24.945 115.593 28.7356 115.572C32.5262 115.55 36.17 117.036 38.8656 119.701C41.5611 122.366 43.0875 125.993 43.109 129.783C43.1305 133.574 41.6453 137.218 38.9802 139.913C36.315 142.609 32.6882 144.135 28.8976 144.157C20.9653 144.202 14.5691 137.878 14.5241 129.945ZM43.3229 79.2567C43.2692 69.7802 46.9822 60.6705 53.6451 53.9316C60.308 47.1928 69.375 43.3767 78.8515 43.323C88.328 43.2693 97.4377 46.9823 104.177 53.6452C110.915 60.3081 114.731 69.3751 114.785 78.8516C114.839 88.3281 111.126 97.4378 104.463 104.177C97.8 110.915 88.733 114.732 79.2565 114.785C69.7801 114.839 60.6704 111.126 53.9315 104.463C47.1926 97.8001 43.3766 88.7331 43.3229 79.2567Z" fill="url(#paint0_linear_401_2779)"/>
<defs>
<linearGradient id="paint0_linear_401_2779" x1="132" y1="28" x2="-1.49998" y2="161.5" gradientUnits="userSpaceOnUse">
<stop stop-color="#4859ED"/>
<stop offset="1" stop-color="#8F45ED"/>
</linearGradient>
</defs>
</svg>
