<svg width="134" height="39" viewBox="0 0 700 150" fill="none" xmlns="http://www.w3.org/2000/svg">
<g clip-path="url(#clip0_401_2767)">
<path d="M187 100.059L197.737 86.8973C205.259 93.1403 213.044 97.1073 222.54 97.1073C229.878 97.1073 234.298 94.2443 234.51 89.5293L234.518 89.0033L234.508 88.5263C234.397 86.1063 233.389 84.3003 230.238 82.5803L229.602 82.2483C229.38 82.1383 229.15 82.0273 228.91 81.9173L228.16 81.5873L227.35 81.2553L226.922 81.0893L226.02 80.7563C225.862 80.6998 225.704 80.6442 225.545 80.5893L224.545 80.2513C224.37 80.1939 224.195 80.1372 224.019 80.0813L222.917 79.7383L221.744 79.3883C221.54 79.329 221.335 79.2704 221.131 79.2123L219.179 78.6723L215.751 77.7673L214.432 77.4063L212.506 76.8533L211.258 76.4763L210.04 76.0903L208.852 75.6933L207.695 75.2853C197.043 71.4183 190.505 65.8363 190.278 53.2783L190.272 52.3543C190.272 37.3043 202.047 27.2733 218.657 27.0113L219.324 27.0063C230.544 26.8243 241.467 30.6142 250.163 37.7063L240.761 51.6393C233.408 46.4693 226.169 43.3473 219.174 43.3473C212.179 43.3473 208.493 46.5813 208.493 50.6803L208.496 51.1883L208.522 51.7353C208.749 54.7583 210.326 56.6033 214.712 58.4053L215.515 58.7233L216.378 59.0413L217.303 59.3613L218.293 59.6853L219.346 60.0133L220.468 60.3473L222.28 60.8623L223.578 61.2183L227.158 62.1663L228.655 62.5813C229.147 62.7213 229.632 62.8633 230.11 63.0073L231.523 63.4453C244.975 67.7413 252.463 73.8903 252.713 86.5383L252.72 87.4423C252.72 104.14 240.14 113.523 222.239 113.523C209.23 113.558 196.672 108.759 187 100.059ZM312.441 80.2403V79.9963C312.441 69.2963 305.333 62.2073 296.909 62.2073C288.636 62.2073 281.74 69.0453 281.497 79.4263L281.49 80.2403C281.49 90.9203 288.485 98.0103 296.91 98.0103C305.333 98.0103 312.441 91.0523 312.441 80.2403ZM263.683 47.9163H281.716V57.1683C283.812 53.9886 286.656 51.3721 290 49.5486C293.343 47.7252 297.083 46.7505 300.891 46.7103L301.535 46.7133C316.18 46.7133 330.145 58.2123 330.469 79.2493L330.474 80.2403C330.474 101.502 316.918 113.248 302.06 113.518L301.535 113.523C297.71 113.584 293.924 112.747 290.481 111.078C287.039 109.409 284.036 106.955 281.715 103.914V131.5H263.683V47.9163ZM378.387 89.6233V86.3703C374.769 84.7486 370.844 83.9275 366.879 83.9633C359.169 83.9633 354.431 87.0853 354.431 92.8583V93.0833C354.431 98.0103 358.455 100.906 364.265 100.906C372.689 100.906 378.387 96.2233 378.387 89.6233ZM336.999 93.8173V93.6473C336.999 79.5823 347.549 73.0953 362.61 73.0953C367.904 73.0486 373.164 73.9459 378.143 75.7453V74.6553C378.143 67.1343 373.517 62.8843 364.51 62.8843C358.491 62.8896 352.531 64.0715 346.966 66.3633L342.453 52.4293C349.831 48.9948 357.875 47.2247 366.013 47.2443L367.123 47.2583C376.958 47.2583 384.047 49.9093 388.598 54.4783C393.148 59.0483 395.461 66.3633 395.461 75.0313V112.32H378.03V105.343C375.637 108.05 372.669 110.189 369.345 111.604C366.02 113.019 362.422 113.675 358.812 113.523C346.834 113.523 336.999 106.547 336.999 93.8173ZM404.957 80.4663V80.2403C404.868 75.9272 405.629 71.6387 407.196 67.6197C408.764 63.6007 411.109 59.9299 414.095 56.8169C417.082 53.7039 420.652 51.2097 424.603 49.4766C428.554 47.7435 432.807 46.8056 437.12 46.7163L437.708 46.7093L438.296 46.7133C450.275 46.7133 457.74 50.7933 463.663 57.5253L452.643 69.5413C448.601 65.2163 444.577 62.4513 438.165 62.4513C429.319 62.4513 422.975 70.2153 422.752 79.4883L422.746 80.2403C422.746 90.0933 429.045 98.0103 438.879 98.0103C444.934 98.0103 449.09 95.3773 453.471 91.1653L464.021 101.977L463.211 102.861L462.387 103.722L461.549 104.558C456.045 109.905 449.429 113.58 438.872 113.761L438.052 113.768C420.004 113.999 405.186 99.5563 404.954 81.5083C404.949 81.1613 404.95 80.8133 404.957 80.4663ZM512.779 75.0883C511.707 66.9083 506.969 61.3803 499.372 61.3803C491.775 61.3803 487.036 66.7953 485.607 75.0883H512.779ZM467.95 80.4853V80.2593C467.95 61.8693 480.869 46.7313 499.372 46.7313C520.602 46.7313 530.342 63.4293 530.342 81.6883C530.342 82.4123 530.309 83.1973 530.262 84.0103L530.098 86.5023H485.852C486.982 94.0953 493.72 99.5703 501.384 99.1193C507.439 99.1193 511.82 97.2393 516.804 92.5003L527.127 101.77C524.048 105.674 520.092 108.797 515.58 110.885C511.068 112.973 506.127 113.967 501.158 113.786C482.053 113.786 467.95 100.191 467.95 80.4853Z" fill="#313131"/>
<path d="M5.96278 107.268C2.34147 98.7844 0.501444 89.3615 0.445545 79.4997C0.199268 36.0507 35.1594 0.691942 78.6084 0.445665C122.057 0.199387 157.416 35.1595 157.662 78.6086C157.909 122.058 122.949 157.416 79.4996 157.663C69.6378 157.718 60.1946 155.985 51.4572 152.676C54.9742 149.195 57.6403 144.949 59.248 140.269C65.6199 142.305 72.2723 143.411 79.4186 143.37C96.4762 143.273 112.797 136.405 124.79 124.275C136.783 112.145 143.467 95.7472 143.37 78.6896C143.273 61.6319 136.404 45.3113 124.275 33.3181C112.145 21.3248 95.7471 14.6414 78.6895 14.7381C61.6318 14.8348 45.3112 21.7037 33.3179 33.8336C21.3247 45.9636 14.6413 62.361 14.738 79.4187C14.7785 86.5649 15.9596 93.2044 18.068 99.5528C13.6463 101.15 9.44418 103.675 5.96278 107.268ZM14.5241 129.945C14.5027 126.155 15.9879 122.511 18.653 119.815C21.3182 117.12 24.945 115.593 28.7356 115.572C32.5262 115.55 36.17 117.036 38.8656 119.701C41.5611 122.366 43.0875 125.993 43.109 129.783C43.1305 133.574 41.6453 137.218 38.9802 139.913C36.315 142.609 32.6882 144.135 28.8976 144.157C20.9653 144.202 14.5691 137.878 14.5241 129.945ZM43.3229 79.2567C43.2692 69.7802 46.9822 60.6705 53.6451 53.9316C60.308 47.1927 69.375 43.3767 78.8515 43.323C88.328 43.2693 97.4377 46.9823 104.177 53.6452C110.915 60.3081 114.731 69.3751 114.785 78.8516C114.839 88.3281 111.126 97.4378 104.463 104.177C97.8 110.915 88.733 114.732 79.2565 114.785C69.7801 114.839 60.6704 111.126 53.9315 104.463C47.1926 97.8001 43.3766 88.7331 43.3229 79.2567Z" fill="url(#paint0_linear_401_2767)"/>
</g>
<defs>
<linearGradient id="paint0_linear_401_2767" x1="132" y1="28" x2="-1.49998" y2="161.5" gradientUnits="userSpaceOnUse">
<stop stop-color="#4859ED"/>
<stop offset="1" stop-color="#8F45ED"/>
</linearGradient>
<clipPath id="clip0_401_2767">
<rect width="536" height="157" fill="white"/>
</clipPath>
</defs>
</svg>
